<svg xmlns="http://www.w3.org/2000/svg" xmlns:xlink="http://www.w3.org/1999/xlink" version="1.1" x="0px" y="0px" viewBox="0 0 100 100" enable-background="new 0 0 100 100" xml:space="preserve"><path d="M79.892,17.149c-1.08-0.179-2.313-0.331-3.64-0.464c-3.873-5.121-13.526-8.019-21.041-8.547  c-2.668-0.187-7.83-0.187-10.424,0c-7.535,0.545-16.896,3.08-21.007,8.53c-1.336,0.137-2.583,0.294-3.676,0.481  c-3.953,0.675-6.882,3.109-8.472,7.039C7.294,34.907,6.568,50.794,7.713,58.143c0.71,4.555,3.963,7.274,8.702,7.274  c1.162,0,2.319-0.064,3.484-0.151c0.288,6.622,3.901,11.246,8.069,16.558c0.752,0.958,1.522,1.94,2.294,2.962  c3.338,4.418,5.832,5.695,9.542,6.616c1.609,0.4,4.693,0.597,9.4,0.597c0.256,0,0.535-0.003,0.801-0.004  C50.273,91.997,50.551,92,50.809,92c4.709,0,7.794-0.196,9.403-0.596c3.712-0.923,6.207-2.199,9.545-6.617  c0.772-1.022,1.543-2.005,2.296-2.963c4.167-5.311,7.778-9.932,8.068-16.551c1.132,0.084,2.273,0.146,3.464,0.146  c4.739,0,7.992-2.719,8.702-7.274c1.145-7.349,0.419-23.236-3.919-33.954C86.77,20.237,83.839,17.803,79.892,17.149z M44.932,10.134  c2.475-0.178,7.592-0.178,10.139,0c6.305,0.442,14.165,2.579,18.265,6.303c-8.076-0.584-18.456-0.587-24.138-0.587  c-5.273,0-14.85,0.001-22.498,0.563C30.327,13.053,37.014,10.706,44.932,10.134z M70.479,80.588  c-0.759,0.968-1.538,1.96-2.317,2.993c-2.994,3.964-5.104,5.055-8.432,5.882c-1,0.249-3.336,0.53-8.777,0.536l0-0.007  c-0.326,0.003-0.635,0.005-0.942,0.006c-0.31-0.001-0.622-0.003-0.951-0.006l0,0.007c-5.433-0.006-7.772-0.287-8.771-0.537  c-3.324-0.826-5.434-1.917-8.429-5.881c-0.779-1.032-1.558-2.023-2.316-2.991c-3.968-5.058-7.404-9.455-7.647-15.494  c1.647-0.171,3.341-0.391,5.157-0.631c5.456-0.721,12.246-1.619,22.146-1.619c11.982,0,18.804,0.926,24.285,1.671  c1.622,0.22,3.139,0.421,4.643,0.581C77.882,71.135,74.446,75.532,70.479,80.588z M90.311,57.835  c-0.785,5.038-4.965,5.582-6.726,5.582c-3.339,0-6.205-0.389-9.834-0.882c-5.541-0.752-12.437-1.689-24.554-1.689  c-10.031,0-16.894,0.907-22.407,1.636c-3.797,0.502-7.077,0.936-10.375,0.936c-1.761,0-5.94-0.544-6.726-5.582  c-1.108-7.12-0.406-22.513,3.796-32.896c1.316-3.253,3.721-5.265,6.954-5.817c7.441-1.271,21.839-1.271,28.758-1.271  c7.362,0,22.684,0,30.368,1.272c3.223,0.534,5.625,2.545,6.949,5.816C90.717,35.323,91.419,50.716,90.311,57.835z"/><path d="M43.744,74.419l-0.182,1.991c1.904,0.175,3.884,0.263,5.883,0.263c2.351,0,4.662-0.122,6.872-0.362l-0.217-1.988  C52.144,74.753,47.758,74.787,43.744,74.419z"/><path d="M57.613,37.349c2.119,0,3.726-1.584,3.737-3.685c0.012-2.114-1.618-3.781-3.712-3.796h-0.023  c-0.966,0-1.928,0.414-2.642,1.136c-0.716,0.725-1.119,1.698-1.107,2.67C53.892,35.661,55.602,37.344,57.613,37.349z M56.397,32.41  c0.34-0.345,0.783-0.542,1.218-0.542v-1l0.01,1c0.989,0.007,1.731,0.774,1.726,1.785c-0.006,0.983-0.736,1.697-1.744,1.697  c-0.916-0.002-1.729-0.797-1.74-1.701C55.86,33.208,56.054,32.757,56.397,32.41z"/><path d="M63.022,25.694l-13.055-0.001l-13.055,0.001c-2.358,0-3.235,0.878-3.235,3.24v20.775c0,2.432,0.861,3.294,3.293,3.294  l21.698,0l4.359,0c2.433,0,3.295-0.862,3.295-3.294V28.985C66.323,26.555,65.46,25.694,63.022,25.694z M64.323,49.709  c0,1.294,0,1.294-1.295,1.294l-4.359,0l-8.721,0l-4.326,0l-8.651,0c-1.293,0-1.293,0-1.293-1.294V28.934c0-1.24,0-1.24,1.235-1.24  l13.055-0.001l13.055,0.001c1.301,0,1.301,0,1.301,1.292V49.709z"/><path d="M60.812,43.717l-0.281-0.384c-0.749-1.026-1.524-2.088-2.524-2.996c-0.417-0.379-0.891-0.731-1.527-0.731  c-0.555,0-1.019,0.278-1.438,0.58c-0.732,0.528-1.321,1.163-1.884,1.834c-0.32-0.369-0.639-0.739-0.957-1.109  c-0.528-0.614-1.057-1.229-1.593-1.836l-0.306-0.348c-0.74-0.847-1.506-1.722-2.467-2.445c-0.327-0.247-0.72-0.509-1.238-0.509  c-0.517,0-0.909,0.264-1.236,0.511c-0.586,0.442-1.057,0.954-1.399,1.348c-2.052,2.341-3.854,4.809-5.937,7.796  c-0.585,0.664-0.387,1.239-0.225,1.509c0.222,0.381,0.614,0.6,1.079,0.6c0.08,0,0.163-0.007,0.262-0.02l5.064,0.002l5.804,0  l10.892,0.002c0.543,0.054,1.038-0.133,1.305-0.56c0.141-0.227,0.402-0.83-0.198-1.525C61.616,44.856,61.224,44.278,60.812,43.717z   M55.811,45.519l-5.803,0l-2.902,0l-6.7-0.001c1.737-2.467,3.312-4.574,5.062-6.571c0.281-0.323,0.66-0.737,1.098-1.067  c0.012-0.009,0.022-0.017,0.033-0.025c0.011,0.008,0.021,0.016,0.033,0.025c0.796,0.598,1.461,1.358,2.164,2.164l0.312,0.354  c0.53,0.602,1.054,1.21,1.576,1.818c0.445,0.518,0.892,1.036,1.341,1.549c0.246,0.281,0.583,0.666,1.152,0.666  c0.592,0,0.934-0.419,1.183-0.725c0.606-0.746,1.164-1.402,1.851-1.897c0.119-0.086,0.2-0.137,0.244-0.167  c0.046,0.034,0.113,0.089,0.208,0.175c0.85,0.771,1.532,1.706,2.254,2.695l0.285,0.39c0.149,0.203,0.296,0.409,0.44,0.616  L55.811,45.519z"/></svg>